<svg width="58" height="48" viewBox="0 0 58 48" fill="none" xmlns="http://www.w3.org/2000/svg">
<path d="M4.764 43.168C3.5 43.168 2.456 42.748 1.632 41.908C0.808 41.068 0.396 40.032 0.396 38.8C0.396 37.56 0.808 36.524 1.632 35.692C2.456 34.852 3.5 34.432 4.764 34.432C5.524 34.432 6.224 34.612 6.864 34.972C7.512 35.324 8.016 35.804 8.376 36.412L6.948 37.24C6.74 36.864 6.444 36.572 6.06 36.364C5.676 36.148 5.244 36.04 4.764 36.04C3.948 36.04 3.288 36.296 2.784 36.808C2.288 37.32 2.04 37.984 2.04 38.8C2.04 39.608 2.288 40.268 2.784 40.78C3.288 41.292 3.948 41.548 4.764 41.548C5.244 41.548 5.676 41.444 6.06 41.236C6.452 41.02 6.748 40.728 6.948 40.36L8.376 41.188C8.016 41.796 7.516 42.28 6.876 42.64C6.236 42.992 5.532 43.168 4.764 43.168ZM13.4164 37H14.9644V43H13.4164V42.292C12.9524 42.876 12.3004 43.168 11.4604 43.168C10.6604 43.168 9.97244 42.864 9.39644 42.256C8.82844 41.64 8.54444 40.888 8.54444 40C8.54444 39.112 8.82844 38.364 9.39644 37.756C9.97244 37.14 10.6604 36.832 11.4604 36.832C12.3004 36.832 12.9524 37.124 13.4164 37.708V37ZM10.5604 41.224C10.8724 41.536 11.2684 41.692 11.7484 41.692C12.2284 41.692 12.6244 41.536 12.9364 41.224C13.2564 40.904 13.4164 40.496 13.4164 40C13.4164 39.504 13.2564 39.1 12.9364 38.788C12.6244 38.468 12.2284 38.308 11.7484 38.308C11.2684 38.308 10.8724 38.468 10.5604 38.788C10.2484 39.1 10.0924 39.504 10.0924 40C10.0924 40.496 10.2484 40.904 10.5604 41.224ZM19.3002 38.488H17.9442V40.984C17.9442 41.192 17.9962 41.344 18.1002 41.44C18.2042 41.536 18.3562 41.592 18.5562 41.608C18.7562 41.616 19.0042 41.612 19.3002 41.596V43C18.2362 43.12 17.4842 43.02 17.0442 42.7C16.6122 42.38 16.3962 41.808 16.3962 40.984V38.488H15.3522V37H16.3962V35.788L17.9442 35.32V37H19.3002V38.488ZM21.0121 40.636C21.2201 41.388 21.7841 41.764 22.7041 41.764C23.2961 41.764 23.7441 41.564 24.0481 41.164L25.2961 41.884C24.7041 42.74 23.8321 43.168 22.6801 43.168C21.6881 43.168 20.8921 42.868 20.2921 42.268C19.6921 41.668 19.3921 40.912 19.3921 40C19.3921 39.096 19.6881 38.344 20.2801 37.744C20.8721 37.136 21.6321 36.832 22.5601 36.832C23.4401 36.832 24.1641 37.136 24.7321 37.744C25.3081 38.352 25.5961 39.104 25.5961 40C25.5961 40.2 25.5761 40.412 25.5361 40.636H21.0121ZM20.9881 39.436H24.0481C23.9601 39.028 23.7761 38.724 23.4961 38.524C23.2241 38.324 22.9121 38.224 22.5601 38.224C22.1441 38.224 21.8001 38.332 21.5281 38.548C21.2561 38.756 21.0761 39.052 20.9881 39.436ZM30.7259 37H32.2379V42.712C32.2379 43.64 31.9299 44.348 31.3139 44.836C30.7059 45.324 29.9699 45.568 29.1059 45.568C28.4579 45.568 27.8859 45.444 27.3899 45.196C26.9019 44.948 26.5259 44.584 26.2619 44.104L27.5819 43.348C27.8859 43.908 28.4099 44.188 29.1539 44.188C29.6419 44.188 30.0259 44.06 30.3059 43.804C30.5859 43.548 30.7259 43.184 30.7259 42.712V42.064C30.2699 42.672 29.6299 42.976 28.8059 42.976C27.9579 42.976 27.2459 42.68 26.6699 42.088C26.1019 41.488 25.8179 40.76 25.8179 39.904C25.8179 39.056 26.1059 38.332 26.6819 37.732C27.2579 37.132 27.9659 36.832 28.8059 36.832C29.6299 36.832 30.2699 37.136 30.7259 37.744V37ZM27.8339 41.092C28.1539 41.396 28.5579 41.548 29.0459 41.548C29.5339 41.548 29.9339 41.396 30.2459 41.092C30.5659 40.78 30.7259 40.384 30.7259 39.904C30.7259 39.432 30.5659 39.044 30.2459 38.74C29.9339 38.428 29.5339 38.272 29.0459 38.272C28.5579 38.272 28.1539 38.428 27.8339 38.74C27.5219 39.044 27.3659 39.432 27.3659 39.904C27.3659 40.384 27.5219 40.78 27.8339 41.092ZM38.2536 42.256C37.6376 42.864 36.8856 43.168 35.9976 43.168C35.1096 43.168 34.3576 42.864 33.7416 42.256C33.1336 41.64 32.8296 40.888 32.8296 40C32.8296 39.112 33.1336 38.364 33.7416 37.756C34.3576 37.14 35.1096 36.832 35.9976 36.832C36.8856 36.832 37.6376 37.14 38.2536 37.756C38.8696 38.364 39.1776 39.112 39.1776 40C39.1776 40.888 38.8696 41.64 38.2536 42.256ZM34.8336 41.188C35.1456 41.5 35.5336 41.656 35.9976 41.656C36.4616 41.656 36.8496 41.5 37.1616 41.188C37.4736 40.876 37.6296 40.48 37.6296 40C37.6296 39.52 37.4736 39.124 37.1616 38.812C36.8496 38.5 36.4616 38.344 35.9976 38.344C35.5336 38.344 35.1456 38.5 34.8336 38.812C34.5296 39.124 34.3776 39.52 34.3776 40C34.3776 40.48 34.5296 40.876 34.8336 41.188ZM41.3146 38.032C41.4586 37.648 41.6946 37.36 42.0226 37.168C42.3586 36.976 42.7306 36.88 43.1386 36.88V38.608C42.6666 38.552 42.2426 38.648 41.8666 38.896C41.4986 39.144 41.3146 39.556 41.3146 40.132V43H39.7666V37H41.3146V38.032ZM44.3119 36.28C44.0559 36.28 43.8319 36.188 43.6399 36.004C43.4559 35.812 43.3639 35.588 43.3639 35.332C43.3639 35.076 43.4559 34.852 43.6399 34.66C43.8319 34.468 44.0559 34.372 44.3119 34.372C44.5759 34.372 44.7999 34.468 44.9839 34.66C45.1759 34.852 45.2719 35.076 45.2719 35.332C45.2719 35.588 45.1759 35.812 44.9839 36.004C44.7999 36.188 44.5759 36.28 44.3119 36.28ZM43.5439 43V37H45.0919V43H43.5439ZM47.3168 40.636C47.5248 41.388 48.0888 41.764 49.0088 41.764C49.6008 41.764 50.0488 41.564 50.3528 41.164L51.6008 41.884C51.0088 42.74 50.1368 43.168 48.9848 43.168C47.9928 43.168 47.1968 42.868 46.5968 42.268C45.9968 41.668 45.6968 40.912 45.6968 40C45.6968 39.096 45.9928 38.344 46.5848 37.744C47.1768 37.136 47.9368 36.832 48.8648 36.832C49.7448 36.832 50.4688 37.136 51.0368 37.744C51.6128 38.352 51.9008 39.104 51.9008 40C51.9008 40.2 51.8808 40.412 51.8408 40.636H47.3168ZM47.2928 39.436H50.3528C50.2648 39.028 50.0808 38.724 49.8008 38.524C49.5288 38.324 49.2168 38.224 48.8648 38.224C48.4488 38.224 48.1048 38.332 47.8328 38.548C47.5608 38.756 47.3808 39.052 47.2928 39.436ZM53.6751 38.704C53.6751 38.864 53.7791 38.996 53.9871 39.1C54.2031 39.196 54.4631 39.284 54.7671 39.364C55.0711 39.436 55.3751 39.532 55.6791 39.652C55.9831 39.764 56.2391 39.956 56.4471 40.228C56.6631 40.5 56.7711 40.84 56.7711 41.248C56.7711 41.864 56.5391 42.34 56.0751 42.676C55.6191 43.004 55.0471 43.168 54.3591 43.168C53.1271 43.168 52.2871 42.692 51.8391 41.74L53.1831 40.984C53.3591 41.504 53.7511 41.764 54.3591 41.764C54.9111 41.764 55.1871 41.592 55.1871 41.248C55.1871 41.088 55.0791 40.96 54.8631 40.864C54.6551 40.76 54.3991 40.668 54.0951 40.588C53.7911 40.508 53.4871 40.408 53.1831 40.288C52.8791 40.168 52.6191 39.98 52.4031 39.724C52.1951 39.46 52.0911 39.132 52.0911 38.74C52.0911 38.148 52.3071 37.684 52.7391 37.348C53.1791 37.004 53.7231 36.832 54.3711 36.832C54.8591 36.832 55.3031 36.944 55.7031 37.168C56.1031 37.384 56.4191 37.696 56.6511 38.104L55.3311 38.824C55.1391 38.416 54.8191 38.212 54.3711 38.212C54.1711 38.212 54.0031 38.256 53.8671 38.344C53.7391 38.432 53.6751 38.552 53.6751 38.704Z" fill="#FFBCA2"/>
<path d="M25.6667 12.0833H18.6667C18.5562 12.0833 18.4502 12.0394 18.372 11.9613C18.2939 11.8832 18.25 11.7772 18.25 11.6667V4.66667C18.25 4.55616 18.2939 4.45018 18.372 4.37204C18.4502 4.2939 18.5562 4.25 18.6667 4.25H25.6667C25.7772 4.25 25.8832 4.2939 25.9613 4.37204C26.0394 4.45018 26.0833 4.55616 26.0833 4.66667V11.6667C26.0833 11.7772 26.0394 11.8832 25.9613 11.9613C25.8832 12.0394 25.7772 12.0833 25.6667 12.0833ZM37.3333 12.0833H30.3333C30.2228 12.0833 30.1168 12.0394 30.0387 11.9613C29.9606 11.8832 29.9167 11.7772 29.9167 11.6667V4.66667C29.9167 4.55616 29.9606 4.45018 30.0387 4.37204C30.1168 4.2939 30.2228 4.25 30.3333 4.25H37.3333C37.4438 4.25 37.5498 4.2939 37.628 4.37204C37.7061 4.45018 37.75 4.55616 37.75 4.66667V11.6667C37.75 11.7772 37.7061 11.8832 37.628 11.9613C37.5498 12.0394 37.4438 12.0833 37.3333 12.0833ZM25.6667 23.75H18.6667C18.5562 23.75 18.4502 23.7061 18.372 23.628C18.2939 23.5498 18.25 23.4438 18.25 23.3333V16.3333C18.25 16.2228 18.2939 16.1168 18.372 16.0387C18.4502 15.9606 18.5562 15.9167 18.6667 15.9167H25.6667C25.7772 15.9167 25.8832 15.9606 25.9613 16.0387C26.0394 16.1168 26.0833 16.2228 26.0833 16.3333V23.3333C26.0833 23.4438 26.0394 23.5498 25.9613 23.628C25.8832 23.7061 25.7772 23.75 25.6667 23.75ZM37.75 19.8333C37.75 21.9928 35.9928 23.75 33.8333 23.75C31.6739 23.75 29.9167 21.9928 29.9167 19.8333C29.9167 17.6739 31.6739 15.9167 33.8333 15.9167C35.9928 15.9167 37.75 17.6739 37.75 19.8333Z" stroke="#FFBCA2" stroke-width="1.5"/>
</svg>
