<svg width="30" height="48" viewBox="0 0 30 48" fill="none" xmlns="http://www.w3.org/2000/svg">
<path d="M3.612 43.156C2.828 43.156 2.156 42.972 1.596 42.604C1.044 42.236 0.656 41.732 0.432 41.092L1.392 40.54C1.72 41.556 2.468 42.064 3.636 42.064C4.212 42.064 4.652 41.948 4.956 41.716C5.26 41.476 5.412 41.16 5.412 40.768C5.412 40.368 5.26 40.068 4.956 39.868C4.652 39.668 4.144 39.456 3.432 39.232C3.08 39.12 2.812 39.032 2.628 38.968C2.444 38.896 2.212 38.792 1.932 38.656C1.66 38.512 1.456 38.368 1.32 38.224C1.184 38.072 1.06 37.876 0.948 37.636C0.844 37.396 0.792 37.124 0.792 36.82C0.792 36.092 1.048 35.516 1.56 35.092C2.072 34.66 2.696 34.444 3.432 34.444C4.096 34.444 4.672 34.612 5.16 34.948C5.656 35.284 6.028 35.728 6.276 36.28L5.34 36.82C4.98 35.956 4.344 35.524 3.432 35.524C2.976 35.524 2.608 35.636 2.328 35.86C2.048 36.084 1.908 36.388 1.908 36.772C1.908 37.14 2.04 37.42 2.304 37.612C2.568 37.804 3.024 38.004 3.672 38.212C3.904 38.284 4.068 38.336 4.164 38.368C4.26 38.4 4.408 38.456 4.608 38.536C4.816 38.616 4.968 38.68 5.064 38.728C5.16 38.776 5.288 38.844 5.448 38.932C5.616 39.02 5.74 39.104 5.82 39.184C5.9 39.264 5.992 39.364 6.096 39.484C6.208 39.596 6.288 39.712 6.336 39.832C6.384 39.952 6.424 40.092 6.456 40.252C6.496 40.404 6.516 40.568 6.516 40.744C6.516 41.48 6.248 42.068 5.712 42.508C5.176 42.94 4.476 43.156 3.612 43.156ZM10.1901 43.156C9.28613 43.156 8.53413 42.856 7.93413 42.256C7.33413 41.648 7.03413 40.896 7.03413 40C7.03413 39.104 7.33413 38.356 7.93413 37.756C8.53413 37.148 9.28613 36.844 10.1901 36.844C10.7821 36.844 11.3141 36.988 11.7861 37.276C12.2581 37.556 12.6101 37.936 12.8421 38.416L11.9661 38.92C11.8141 38.6 11.5781 38.344 11.2581 38.152C10.9461 37.96 10.5901 37.864 10.1901 37.864C9.59013 37.864 9.08613 38.068 8.67813 38.476C8.27813 38.884 8.07812 39.392 8.07812 40C8.07812 40.6 8.27813 41.104 8.67813 41.512C9.08613 41.92 9.59013 42.124 10.1901 42.124C10.5901 42.124 10.9501 42.032 11.2701 41.848C11.5901 41.656 11.8341 41.4 12.0021 41.08L12.8901 41.596C12.6341 42.068 12.2661 42.448 11.7861 42.736C11.3061 43.016 10.7741 43.156 10.1901 43.156ZM18.4029 42.244C17.7869 42.852 17.0389 43.156 16.1589 43.156C15.2789 43.156 14.5309 42.852 13.9149 42.244C13.3069 41.636 13.0029 40.888 13.0029 40C13.0029 39.112 13.3069 38.364 13.9149 37.756C14.5309 37.148 15.2789 36.844 16.1589 36.844C17.0389 36.844 17.7869 37.148 18.4029 37.756C19.0189 38.364 19.3269 39.112 19.3269 40C19.3269 40.888 19.0189 41.636 18.4029 42.244ZM16.1589 42.136C16.7589 42.136 17.2629 41.932 17.6709 41.524C18.0789 41.116 18.2829 40.608 18.2829 40C18.2829 39.392 18.0789 38.884 17.6709 38.476C17.2629 38.068 16.7589 37.864 16.1589 37.864C15.5669 37.864 15.0669 38.068 14.6589 38.476C14.2509 38.884 14.0469 39.392 14.0469 40C14.0469 40.608 14.2509 41.116 14.6589 41.524C15.0669 41.932 15.5669 42.136 16.1589 42.136ZM21.1016 38.008C21.4456 37.264 22.0696 36.892 22.9736 36.892V37.984C22.4616 37.96 22.0216 38.096 21.6536 38.392C21.2856 38.688 21.1016 39.164 21.1016 39.82V43H20.0576V37H21.1016V38.008ZM23.899 40.48C24.003 41.016 24.247 41.432 24.631 41.728C25.023 42.024 25.503 42.172 26.071 42.172C26.863 42.172 27.439 41.88 27.799 41.296L28.687 41.8C28.103 42.704 27.223 43.156 26.047 43.156C25.095 43.156 24.319 42.86 23.719 42.268C23.127 41.668 22.831 40.912 22.831 40C22.831 39.096 23.123 38.344 23.707 37.744C24.291 37.144 25.047 36.844 25.975 36.844C26.855 36.844 27.571 37.156 28.123 37.78C28.683 38.396 28.963 39.14 28.963 40.012C28.963 40.164 28.951 40.32 28.927 40.48H23.899ZM25.975 37.828C25.415 37.828 24.951 37.988 24.583 38.308C24.215 38.62 23.987 39.04 23.899 39.568H27.907C27.819 39 27.595 38.568 27.235 38.272C26.875 37.976 26.455 37.828 25.975 37.828Z" fill="white"/>
<path d="M25.9077 11.2609C25.8025 10.9208 25.6091 10.6176 25.3488 10.3849C25.0885 10.1523 24.7716 9.99921 24.433 9.94272L19.1205 9.04277L16.6578 4.05433C16.5009 3.73676 16.2632 3.47036 15.9706 3.28438C15.6781 3.09839 15.342 3 14.9993 3C14.6567 3 14.3206 3.09839 14.028 3.28438C13.7355 3.47036 13.4977 3.73676 13.3409 4.05433L10.8781 9.04277L5.56574 9.94272C5.22752 10.0001 4.911 10.1535 4.65091 10.386C4.39082 10.6186 4.1972 10.9213 4.09131 11.261C3.98541 11.6007 3.97133 11.9643 4.05061 12.3118C4.12989 12.6593 4.29946 12.9773 4.54073 13.231L8.33114 17.2139L7.51072 22.7585C7.45808 23.1117 7.49989 23.4731 7.63156 23.8031C7.76323 24.1331 7.97966 24.4188 8.25704 24.6289C8.53441 24.839 8.862 24.9652 9.20376 24.9938C9.54553 25.0223 9.88823 24.9521 10.1942 24.7908L14.9993 22.2639L19.8046 24.7908C20.1106 24.9518 20.4532 25.0218 20.7949 24.9931C21.1365 24.9643 21.4639 24.8381 21.7412 24.6281C22.0185 24.4181 22.2349 24.1325 22.3666 23.8027C22.4984 23.4729 22.5404 23.1116 22.4881 22.7585L21.6677 17.2139L25.4581 13.231C25.7001 12.9778 25.8702 12.6598 25.9496 12.3121C26.0289 11.9644 26.0144 11.6006 25.9077 11.2609ZM24.4167 12.1543L20.1052 16.6849L21.0385 22.9917C21.0501 23.0672 21.0414 23.1446 21.0133 23.2153C20.9853 23.286 20.939 23.3472 20.8797 23.3922C20.8203 23.4371 20.7502 23.4641 20.677 23.47C20.6038 23.476 20.5305 23.4607 20.4652 23.4259L14.9993 20.5516L9.53344 23.426C9.4681 23.4608 9.39479 23.4761 9.32164 23.4701C9.24848 23.4642 9.17833 23.4372 9.11897 23.3923C9.0596 23.3473 9.01334 23.2861 8.9853 23.2154C8.95726 23.1447 8.94854 23.0673 8.96011 22.9918L9.89351 16.6849L5.58201 12.1543C5.53053 12.1001 5.49435 12.0321 5.47744 11.9579C5.46054 11.8837 5.46356 11.806 5.48618 11.7335C5.50879 11.6609 5.55013 11.5962 5.60566 11.5465C5.66119 11.4968 5.72878 11.464 5.801 11.4517L11.8437 10.4281L14.645 4.75391C14.6785 4.68604 14.7293 4.6291 14.7918 4.58934C14.8543 4.54959 14.9261 4.52856 14.9993 4.52856C15.0726 4.52856 15.1444 4.54959 15.2069 4.58934C15.2694 4.6291 15.3202 4.68604 15.3537 4.75391L18.155 10.4281L24.1977 11.4517C24.2699 11.464 24.3375 11.4968 24.393 11.5465C24.4485 11.5962 24.4899 11.6609 24.5125 11.7335C24.5351 11.806 24.5381 11.8837 24.5212 11.9579C24.5043 12.0321 24.4682 12.1001 24.4167 12.1543L24.4167 12.1543Z" fill="white"/>
</svg>
