<svg width="31" height="48" viewBox="0 0 31 48" fill="none" xmlns="http://www.w3.org/2000/svg">
<path d="M6.096 34.6H7.2V43H6.096V39.22H2.016V43H0.9V34.6H2.016V38.164H6.096V34.6ZM13.4537 42.244C12.8377 42.852 12.0897 43.156 11.2097 43.156C10.3297 43.156 9.58166 42.852 8.96566 42.244C8.35766 41.636 8.05366 40.888 8.05366 40C8.05366 39.112 8.35766 38.364 8.96566 37.756C9.58166 37.148 10.3297 36.844 11.2097 36.844C12.0897 36.844 12.8377 37.148 13.4537 37.756C14.0697 38.364 14.3777 39.112 14.3777 40C14.3777 40.888 14.0697 41.636 13.4537 42.244ZM11.2097 42.136C11.8097 42.136 12.3137 41.932 12.7217 41.524C13.1297 41.116 13.3337 40.608 13.3337 40C13.3337 39.392 13.1297 38.884 12.7217 38.476C12.3137 38.068 11.8097 37.864 11.2097 37.864C10.6177 37.864 10.1177 38.068 9.70966 38.476C9.30166 38.884 9.09766 39.392 9.09766 40C9.09766 40.608 9.30166 41.116 9.70966 41.524C10.1177 41.932 10.6177 42.136 11.2097 42.136ZM21.5884 36.844C22.2604 36.844 22.8044 37.064 23.2204 37.504C23.6364 37.936 23.8444 38.524 23.8444 39.268V43H22.8004V39.304C22.8004 38.84 22.6804 38.48 22.4404 38.224C22.2004 37.968 21.8804 37.84 21.4804 37.84C21.0324 37.84 20.6724 37.992 20.4004 38.296C20.1364 38.592 20.0044 39.048 20.0044 39.664V43H18.9604V39.304C18.9604 38.84 18.8444 38.48 18.6124 38.224C18.3884 37.968 18.0804 37.84 17.6884 37.84C17.2484 37.84 16.8804 37.992 16.5844 38.296C16.2964 38.6 16.1524 39.056 16.1524 39.664V43H15.1084V37H16.1524V37.804C16.5604 37.164 17.1564 36.844 17.9404 36.844C18.7484 36.844 19.3364 37.184 19.7044 37.864C20.1204 37.184 20.7484 36.844 21.5884 36.844ZM25.524 40.48C25.628 41.016 25.872 41.432 26.256 41.728C26.648 42.024 27.128 42.172 27.696 42.172C28.488 42.172 29.064 41.88 29.424 41.296L30.312 41.8C29.728 42.704 28.848 43.156 27.672 43.156C26.72 43.156 25.944 42.86 25.344 42.268C24.752 41.668 24.456 40.912 24.456 40C24.456 39.096 24.748 38.344 25.332 37.744C25.916 37.144 26.672 36.844 27.6 36.844C28.48 36.844 29.196 37.156 29.748 37.78C30.308 38.396 30.588 39.14 30.588 40.012C30.588 40.164 30.576 40.32 30.552 40.48H25.524ZM27.6 37.828C27.04 37.828 26.576 37.988 26.208 38.308C25.84 38.62 25.612 39.04 25.524 39.568H29.532C29.444 39 29.22 38.568 28.86 38.272C28.5 37.976 28.08 37.828 27.6 37.828Z" fill="white"/>
<path d="M13.3083 2.95373C13.7817 2.55475 14.3809 2.33594 15 2.33594C15.6191 2.33594 16.2183 2.55475 16.6917 2.95373L24.5667 9.59439C25.1582 10.0937 25.5 10.8276 25.5 11.6011V23.0379C25.5 23.5794 25.2849 24.0987 24.902 24.4816C24.5191 24.8645 23.9998 25.0796 23.4583 25.0796H19.375C18.8335 25.0796 18.3142 24.8645 17.9313 24.4816C17.5484 24.0987 17.3333 23.5794 17.3333 23.0379V16.6212C17.3333 16.5439 17.3026 16.4697 17.2479 16.415C17.1932 16.3603 17.119 16.3296 17.0417 16.3296H12.9583C12.881 16.3296 12.8068 16.3603 12.7521 16.415C12.6974 16.4697 12.6667 16.5439 12.6667 16.6212V23.0379C12.6667 23.5794 12.4516 24.0987 12.0687 24.4816C11.6858 24.8645 11.1665 25.0796 10.625 25.0796H6.54167C6.27355 25.0796 6.00806 25.0267 5.76035 24.9241C5.51265 24.8215 5.28758 24.6712 5.09799 24.4816C4.9084 24.292 4.75802 24.0669 4.65541 23.8192C4.55281 23.5715 4.5 23.306 4.5 23.0379V11.6011C4.5 10.8276 4.84183 10.0937 5.43333 9.59439L13.3083 2.95373ZM15.5635 4.29189C15.4058 4.15911 15.2062 4.08629 15 4.08629C14.7938 4.08629 14.5942 4.15911 14.4365 4.29189L6.5615 10.9314C6.46405 11.0134 6.38568 11.1158 6.33188 11.2312C6.27807 11.3467 6.25013 11.4725 6.25 11.5999V23.0367C6.25 23.1977 6.38067 23.3284 6.54167 23.3284H10.625C10.7024 23.3284 10.7765 23.2977 10.8312 23.243C10.8859 23.1883 10.9167 23.1141 10.9167 23.0367V16.6201C10.9167 15.4919 11.8313 14.5784 12.9583 14.5784H17.0417C18.1687 14.5784 19.0833 15.4919 19.0833 16.6201V23.0367C19.0833 23.1977 19.214 23.3284 19.375 23.3284H23.4583C23.5357 23.3284 23.6099 23.2977 23.6646 23.243C23.7193 23.1883 23.75 23.1141 23.75 23.0367V11.6011C23.7499 11.4737 23.7219 11.3479 23.6681 11.2324C23.6143 11.1169 23.536 11.0146 23.4385 10.9326L15.5635 4.29189Z" fill="white"/>
</svg>
