<svg width="34" height="34" viewBox="0 0 34 34" fill="none" xmlns="http://www.w3.org/2000/svg">
<path d="M28.6873 17.8074V16.9999V16.1818L30.7273 14.3968C31.1034 14.0653 31.3502 13.6116 31.424 13.1158C31.4979 12.62 31.3942 12.1141 31.1311 11.6874L28.6236 7.43738C28.4373 7.11466 28.1694 6.84661 27.8467 6.66012C27.5241 6.47363 27.1581 6.37526 26.7855 6.37488C26.5545 6.37311 26.3249 6.409 26.1055 6.48113L23.5236 7.35238C23.0778 7.05617 22.6128 6.78995 22.1317 6.55551L21.5898 3.87801C21.4927 3.38884 21.2266 2.94943 20.8381 2.63669C20.4496 2.32396 19.9635 2.15783 19.4648 2.16738H14.4923C13.9937 2.15783 13.5076 2.32396 13.1191 2.63669C12.7306 2.94943 12.4645 3.38884 12.3673 3.87801L11.8255 6.55551C11.3409 6.7899 10.8724 7.0561 10.423 7.35238L7.89422 6.43863C7.67247 6.38086 7.44284 6.35933 7.21422 6.37488C6.84157 6.37526 6.47558 6.47363 6.15295 6.66012C5.83033 6.84661 5.56241 7.11466 5.37609 7.43738L2.86859 11.6874C2.62059 12.1134 2.52843 12.6125 2.60791 13.099C2.68738 13.5855 2.93353 14.0293 3.30422 14.3543L5.31234 16.1924V17.818L3.30422 19.603C2.92306 19.9303 2.67017 20.382 2.59043 20.878C2.51068 21.3739 2.60923 21.8821 2.86859 22.3124L5.37609 26.5624C5.56241 26.8851 5.83033 27.1532 6.15295 27.3396C6.47558 27.5261 6.84157 27.6245 7.21422 27.6249C7.44515 27.6267 7.67483 27.5908 7.89422 27.5186L10.4761 26.6474C10.9219 26.9436 11.3868 27.2098 11.868 27.4443L12.4098 30.1218C12.507 30.6109 12.7731 31.0503 13.1616 31.3631C13.5501 31.6758 14.0362 31.8419 14.5348 31.8324H19.5498C20.0485 31.8419 20.5346 31.6758 20.9231 31.3631C21.3116 31.0503 21.5777 30.6109 21.6748 30.1218L22.2167 27.4443C22.7013 27.2099 23.1698 26.9437 23.6192 26.6474L26.1905 27.5186C26.4098 27.5908 26.6395 27.6267 26.8705 27.6249C27.2431 27.6245 27.6091 27.5261 27.9317 27.3396C28.2544 27.1532 28.5223 26.8851 28.7086 26.5624L31.1311 22.3124C31.3791 21.8863 31.4712 21.3873 31.3918 20.9008C31.3123 20.4143 31.0661 19.9705 30.6955 19.6455L28.6873 17.8074ZM26.7855 25.4999L23.1411 24.2674C22.288 24.99 21.3129 25.5549 20.2617 25.9355L19.5073 29.7499H14.4923L13.738 25.978C12.695 25.5866 11.7253 25.0227 10.8692 24.3099L7.21422 25.4999L4.70672 21.2499L7.59672 18.6999C7.40026 17.6 7.40026 16.4741 7.59672 15.3743L4.70672 12.7499L7.21422 8.49988L10.8586 9.73238C11.7117 9.00977 12.6867 8.4449 13.738 8.06426L14.4923 4.24988H19.5073L20.2617 8.02176C21.3046 8.41321 22.2744 8.9771 23.1305 9.68988L26.7855 8.49988L29.293 12.7499L26.403 15.2999C26.5994 16.3997 26.5994 17.5257 26.403 18.6255L29.293 21.2499L26.7855 25.4999Z" fill="white"/>
<path d="M17 23.375C15.7391 23.375 14.5066 23.0011 13.4582 22.3006C12.4099 21.6001 11.5928 20.6045 11.1103 19.4396C10.6278 18.2747 10.5015 16.9929 10.7475 15.7563C10.9935 14.5197 11.6006 13.3838 12.4922 12.4922C13.3838 11.6006 14.5197 10.9935 15.7563 10.7475C16.9929 10.5015 18.2747 10.6278 19.4396 11.1103C20.6045 11.5928 21.6001 12.4099 22.3006 13.4582C23.0011 14.5066 23.375 15.7391 23.375 17C23.3835 17.8396 23.2245 18.6724 22.9071 19.4497C22.5897 20.227 22.1205 20.9331 21.5268 21.5268C20.9331 22.1205 20.227 22.5897 19.4497 22.9071C18.6724 23.2245 17.8396 23.3835 17 23.375ZM17 12.75C16.4383 12.7369 15.8798 12.8379 15.3582 13.0469C14.8367 13.2558 14.363 13.5684 13.9657 13.9657C13.5684 14.363 13.2558 14.8367 13.0469 15.3582C12.8379 15.8798 12.7369 16.4383 12.75 17C12.7369 17.5617 12.8379 18.1202 13.0469 18.6418C13.2558 19.1633 13.5684 19.6371 13.9657 20.0343C14.363 20.4316 14.8367 20.7442 15.3582 20.9532C15.8798 21.1621 16.4383 21.2631 17 21.25C17.5617 21.2631 18.1202 21.1621 18.6418 20.9532C19.1633 20.7442 19.6371 20.4316 20.0343 20.0343C20.4316 19.6371 20.7442 19.1633 20.9532 18.6418C21.1621 18.1202 21.2631 17.5617 21.25 17C21.2631 16.4383 21.1621 15.8798 20.9532 15.3582C20.7442 14.8367 20.4316 14.363 20.0343 13.9657C19.6371 13.5684 19.1633 13.2558 18.6418 13.0469C18.1202 12.8379 17.5617 12.7369 17 12.75Z" fill="white"/>
</svg>
